HIERARCHY
ROOT Hips
{
 OFFSET 0.000000 0.000000 0.000000
 CHANNELS 6 Xposition Yposition Zposition Yrotation Xrotation Zrotation
 JOINT Chest
 {
  OFFSET 0.000000 10.354800 0.006500
  CHANNELS 3 Yrotation Xrotation Zrotation
  JOINT Chest2
  {
   OFFSET 0.000000 10.435800 -0.013200
   CHANNELS 3 Yrotation Xrotation Zrotation
   JOINT Chest3
   {
    OFFSET 0.000000 10.393700 0.000000
    CHANNELS 3 Yrotation Xrotation Zrotation
    JOINT Chest4
    {
     OFFSET 0.000000 10.383100 0.000000
     CHANNELS 3 Yrotation Xrotation Zrotation
     JOINT Neck
     {
      OFFSET 0.000000 15.694000 0.000000
      CHANNELS 3 Yrotation Xrotation Zrotation
      JOINT Head
      {
       OFFSET 0.000000 9.711000 -0.028000
       CHANNELS 3 Yrotation Xrotation Zrotation
       End Site
       {
        OFFSET 0.000000 18.578700 -0.014800
       }
      }
     }
     JOINT RightCollar
     {
      OFFSET -3.157200 10.367500 0.000000
      CHANNELS 3 Yrotation Xrotation Zrotation
      JOINT RightShoulder
      {
       OFFSET -14.482500 0.000000 0.000000
       CHANNELS 3 Yrotation Xrotation Zrotation
       JOINT RightElbow
       {
        OFFSET 0.000000 -31.707800 0.000000
        CHANNELS 3 Yrotation Xrotation Zrotation
        JOINT RightWrist
        {
         OFFSET 0.000000 -25.659300 0.000000
         CHANNELS 3 Yrotation Xrotation Zrotation
         End Site
         {
          OFFSET 0.000000 -18.994300 0.000000
         }
        }
       }
      }
     }
     JOINT LeftCollar
     {
      OFFSET 3.157200 10.367500 0.000000
      CHANNELS 3 Yrotation Xrotation Zrotation
      JOINT LeftShoulder
      {
       OFFSET 14.482500 0.000000 0.000000
       CHANNELS 3 Yrotation Xrotation Zrotation
       JOINT LeftElbow
       {
        OFFSET 0.000000 -31.707800 0.000000
        CHANNELS 3 Yrotation Xrotation Zrotation
        JOINT LeftWrist
        {
         OFFSET 0.000000 -25.659300 0.000000
         CHANNELS 3 Yrotation Xrotation Zrotation
         End Site
         {
          OFFSET 0.000000 -18.994300 0.000000
         }
        }
       }
      }
     }
    }
   }
  }
 }
 JOINT RightHip
 {
  OFFSET -8.365600 -0.032100 -0.003200
  CHANNELS 3 Yrotation Xrotation Zrotation
  JOINT RightKnee
  {
   OFFSET 0.000000 -43.980000 0.003100
   CHANNELS 3 Yrotation Xrotation Zrotation
   JOINT RightAnkle
   {
    OFFSET 0.000000 -42.882800 0.005200
    CHANNELS 3 Yrotation Xrotation Zrotation
    JOINT RightToe
    {
     OFFSET 0.000000 -4.915500 10.826300
     CHANNELS 3 Yrotation Xrotation Zrotation
     End Site
     {
      OFFSET 0.000000 -1.517500 6.175900
     }
    }
   }
  }
 }
 JOINT LeftHip
 {
  OFFSET 8.365600 -0.032100 -0.003200
  CHANNELS 3 Yrotation Xrotation Zrotation
  JOINT LeftKnee
  {
   OFFSET 0.000000 -43.980000 0.003100
   CHANNELS 3 Yrotation Xrotation Zrotation
   JOINT LeftAnkle
   {
    OFFSET 0.000000 -42.882800 0.005200
    CHANNELS 3 Yrotation Xrotation Zrotation
    JOINT LeftToe
    {
     OFFSET 0.000000 -4.915500 10.826300
     CHANNELS 3 Yrotation Xrotation Zrotation
     End Site
     {
      OFFSET 0.000000 -1.517500 6.175900
     }
    }
   }
  }
 }
}
MOTION
Frames: 8
Frame Time: 0.008333
1.369187 127.172844 29.511184 172.620001 -33.814043 -6.963303 2.277616 14.591417 2.048472 0.181713 1.319140 0.159178 0.310185 2.228742 0.273070 2.004175 13.057150 1.803535 -1.846633 22.233048 -0.546154 -1.859073 -1.899161 -0.159440 3.369093 5.850253 -1.052096 -4.493773 -6.305325 -4.307778 -174.400759 -60.917282 -171.218807 -11.279950 -21.882344 -30.261745 -2.365115 7.712058 0.363236 7.739631 -8.150735 -2.387631 -166.266024 -49.300940 158.471627 2.922784 -10.657182 35.192348 2.477319 -41.188089 3.792959 -152.056518 73.835485 -145.267388 -2.279117 -28.547789 3.434667 0.000391 -0.002902 0.000178 -9.681478 -37.831408 14.487098 167.395830 73.620766 163.016760 -2.556450 -31.745418 -0.233372 -0.002800 -0.000447 -0.001271
1.370258 127.173049 29.511566 172.619382 -33.814515 -6.962196 2.279300 14.594960 2.049375 0.181693 1.319030 0.158985 0.311022 2.229616 0.273170 2.016657 13.068927 1.807444 -1.858428 22.248369 -0.543613 -1.862349 -1.915363 -0.159763 3.350898 5.844649 -1.053080 -4.483291 -6.304511 -4.310169 -174.406512 -60.916348 -171.214454 -11.278386 -21.858156 -30.246754 -2.378807 7.697239 0.360998 7.726296 -8.156163 -2.382409 -166.259059 -49.300659 158.468853 2.920261 -10.654835 35.162092 2.474722 -41.190831 3.794768 -152.047272 73.839994 -145.258028 -2.279740 -28.540306 3.432851 0.000412 -0.001686 0.000187 -9.689291 -37.826143 14.498250 167.392528 73.632216 163.008820 -2.558849 -31.736803 -0.235907 -0.003082 0.000887 -0.001399
1.371231 127.173156 29.511851 172.613900 -33.814953 -6.957390 2.283843 14.598300 2.050720 0.184253 1.325072 0.161295 0.311622 2.227664 0.270279 2.018006 13.068650 1.807868 -1.860392 22.289896 -0.539232 -1.871093 -1.903080 -0.156386 3.339551 5.854358 -1.053022 -4.468006 -6.296912 -4.329220 -174.393149 -60.901788 -171.236476 -11.274441 -21.851205 -30.242892 -2.379914 7.701935 0.362977 7.696857 -8.175325 -2.377238 -166.248610 -49.304636 158.473118 2.926404 -10.651119 35.134744 2.466748 -41.195123 3.793090 -152.047355 73.842867 -145.260896 -2.275138 -28.531786 3.432104 -0.000592 -0.001514 -0.000269 -9.687092 -37.822693 14.507656 167.406822 73.641468 163.021001 -2.560702 -31.731248 -0.236040 -0.002689 0.001284 -0.001221
1.371874 127.173392 29.511705 172.606232 -33.817279 -6.948806 2.289143 14.603690 2.050808 0.184577 1.324680 0.160588 0.313297 2.232656 0.273284 2.020355 13.066259 1.804887 -1.866066 22.298906 -0.540155 -1.872378 -1.835903 -0.151570 3.330174 5.860897 -1.055207 -4.470123 -6.294462 -4.342232 -174.371294 -60.910968 -171.248353 -11.267539 -21.856371 -30.239604 -2.379073 7.708743 0.362855 7.677338 -8.193784 -2.364824 -166.273864 -49.313365 158.484864 2.930839 -10.648933 35.128775 2.472994 -41.195400 3.786446 -152.026930 73.842366 -145.240076 -2.267354 -28.526090 3.432352 -0.000613 0.001063 -0.000279 -9.683321 -37.816975 14.512013 167.422225 73.650079 163.034272 -2.559994 -31.726667 -0.239421 -0.002090 0.001354 -0.000949
1.372662 127.173245 29.512096 172.593547 -33.816423 -6.938221 2.298448 14.603203 2.049079 0.184058 1.326763 0.162129 0.314479 2.231184 0.271800 2.025236 13.068645 1.806560 -1.868893 22.319751 -0.539963 -1.875346 -1.836533 -0.152150 3.322920 5.860825 -1.057607 -4.475640 -6.288257 -4.351686 -174.360035 -60.920805 -171.243748 -11.255346 -21.809214 -30.216084 -2.373259 7.733440 0.360142 7.657827 -8.225793 -2.353350 -166.335346 -49.321869 158.511624 2.924203 -10.649321 35.129883 2.474374 -41.208883 3.780908 -152.029703 73.837594 -145.248806 -2.255000 -28.514918 3.426972 -0.002338 -0.002904 -0.001061 -9.680897 -37.812400 14.522612 167.447979 73.659577 163.055230 -2.561919 -31.725258 -0.242783 0.000456 0.002332 0.000207
1.374354 127.173440 29.512259 172.582447 -33.818176 -6.933188 2.308794 14.605847 2.052279 0.180852 1.328181 0.163625 0.318399 2.230321 0.270390 2.025740 13.067694 1.805811 -1.863548 22.342816 -0.537643 -1.878411 -1.815427 -0.151763 3.317678 5.873351 -1.060192 -4.475766 -6.299140 -4.352341 -174.416001 -60.954286 -171.181619 -11.276678 -21.842508 -30.215831 -2.366927 7.747488 0.360284 7.648590 -8.242116 -2.339061 -166.365782 -49.327558 158.535432 2.937185 -10.662957 35.126950 2.481041 -41.211058 3.780312 -152.050377 73.846432 -145.260795 -2.261254 -28.508848 3.421101 0.000964 -0.000728 0.000438 -9.677146 -37.808020 14.530840 167.458356 73.664776 163.065036 -2.560799 -31.725061 -0.245198 -0.000125 0.001848 -0.000057
1.375149 127.173655 29.512110 172.574808 -33.820894 -6.925058 2.308809 14.610135 2.049271 0.183972 1.328722 0.164364 0.316375 2.232025 0.269361 2.029099 13.071269 1.804432 -1.851871 22.379683 -0.535874 -1.870344 -1.781747 -0.155760 3.309104 5.882289 -1.059545 -4.478825 -6.296961 -4.367917 -174.395010 -60.937249 -171.195230 -11.258407 -21.818096 -30.208280 -2.358704 7.754915 0.362555 7.645207 -8.249569 -2.332759 -166.384352 -49.324419 158.548426 2.948822 -10.680510 35.137784 2.481898 -41.213838 3.774922 -152.078036 73.849719 -145.290016 -2.261722 -28.503482 3.414537 0.000908 -0.000764 0.000412 -9.672331 -37.805138 14.531945 167.466019 73.668197 163.070810 -2.559995 -31.722401 -0.247401 -0.000451 0.000607 -0.000205
1.376342 127.173897 29.512149 172.570584 -33.823173 -6.921595 2.309668 14.615053 2.052611 0.185955 1.326695 0.160548 0.315657 2.236074 0.273229 2.032838 13.074597 1.804446 -1.853807 22.381649 -0.539729 -1.868702 -1.774477 -0.156755 3.294134 5.890737 -1.065665 -4.496107 -6.262533 -4.400006 -174.369982 -60.904548 -171.208339 -11.234699 -21.772685 -30.192901 -2.356041 7.760357 0.363492 7.643203 -8.254871 -2.331667 -166.392627 -49.320312 158.554212 2.951366 -10.685881 35.143098 2.481981 -41.218090 3.772559 -152.099632 73.849237 -145.308588 -2.261696 -28.496615 3.406401 0.003013 -0.001761 0.001368 -9.672067 -37.804020 14.535449 167.464649 73.668074 163.069125 -2.560260 -31.718303 -0.248089 -0.000161 -0.000657 -0.000073
